{"title":"Monkey Business 2013 DVDRip x264 AC3","uid":8676265,"size":1057771451,"categoryP":"video","categoryS":"movies","magnet":"?xt=urn:btih:684f3902428bfa95fc4fb3231ddf41b0c4c28f8d&amp;dn=Monkey+Business+2013+DVDRip+x264+AC3&amp;tr=udp%3A%2F%2Ftracker.openbittorrent.com%3A80&amp;tr=udp%3A%2F%2Fopen.demonii.com%3A1337&amp;tr=udp%3A%2F%2Ftracker.coppersurfer.tk%3A6969&amp;tr=udp%3A%2F%2Fexodus.desync.com%3A6969","seeders":1,"leechers":0,"uploader":"ValidusVyto","files":-1,"time":1373601772,"description":"_______ Visit us at our Semi Public Bittorrent Community ________\n    &lt;a href=&quot;\nhttp://p2pdl.com&quot; rel=&quot;nofollow&quot; target=&quot;_NEW&quot;&gt;\nhttp://p2pdl.com&lt;/a&gt;  _____________________________ &lt;a href=&quot; http://p2pdl.com&quot; rel=&quot;nofollow&quot; target=&quot;_NEW&quot;&gt; http://p2pdl.com&lt;/a&gt;\n\n\nMonkey Business 2013 DVDRip x264 AC3\n\nGenre: Family\n\nDirectors: Sergio Manfio\n\nActors: Belinda Keller, Marc Matney, Shannon Settlemyre, Steve Rassin\n\nIn a magical land, where injustice rules the day, an evil witch and her band of followers are determined to take over the world. Only a team of smart, resourceful super heroes have the courage to stop her. Equipped with a touch of magic, the friends discover the power of teamwork and combine their strength to save the land from the evil witch.\n &lt;a href=&quot;\nhttp://www.redboxnewreleases.com/movies/monkey-business&quot; rel=&quot;nofollow&quot; target=&quot;_NEW&quot;&gt;\nhttp://www.redboxnewreleases.com/movies/monkey-business&lt;/a&gt;\n\nSample Included......: No \nDXVA Compliant.......: Yes \nChapters Included: No \nSource...............: R1 DVD\n\nFormat : Matroska\nFile size : 1 008 MiB\nDuration : 1h 34mn\nOverall bit rate : 1 493 Kbps\n\nVideo\nFormat : AVC\nBit rate mode : Variable\nBit rate : 1 299 Kbps\nWidth : 720 pixels\nHeight : 400 pixels\nDisplay aspect ratio : 16:9\nFrame rate mode : Constant\nFrame rate : 23.976 fps\nStream size : 859 MiB (85%)\nWriting library : x264 core 133 r2334 a3ac64b\nLanguage : English\n\nAudio\nFormat : AC-3\nBit rate mode : Constant\nBit rate : 192 Kbps\nChannel(s) : 2 channels\nChannel positions : Front: L R\nSampling rate : 48.0 KHz\nStream size : 130 MiB (13%)\n &lt;a href=&quot;\nhttp://ultraimg.com/images/myPEI.png&quot; rel=&quot;nofollow&quot; target=&quot;_NEW&quot;&gt;\nhttp://ultraimg.com/images/myPEI.png&lt;/a&gt; &lt;a href=&quot;\nhttp://ultraimg.com/images/2Jzg.png&quot; rel=&quot;nofollow&quot; target=&quot;_NEW&quot;&gt;\nhttp://ultraimg.com/images/2Jzg.png&lt;/a&gt; &lt;a href=&quot;\nhttp://ultraimg.com/images/X48xn.png&quot; rel=&quot;nofollow&quot; target=&quot;_NEW&quot;&gt;\nhttp://ultraimg.com/images/X48xn.png&lt;/a&gt; &lt;a href=&quot;\nhttp://ultraimg.com/images/W9y.png&quot; rel=&quot;nofollow&quot; target=&quot;_NEW&quot;&gt;\nhttp://ultraimg.com/images/W9y.png&lt;/a&gt; &lt;a href=&quot;\nhttp://ultraimg.com/images/Per8a.png&quot; rel=&quot;nofollow&quot; target=&quot;_NEW&quot;&gt;\nhttp://ultraimg.com/images/Per8a.png&lt;/a&gt;\n","torrent":{"xt":"urn:btih:684f3902428bfa95fc4fb3231ddf41b0c4c28f8d","amp;dn":"Monkey+Business+2013+DVDRip+x264+AC3","amp;tr":["udp%3A%2F%2Ftracker.openbittorrent.com%3A80","udp%3A%2F%2Fopen.demonii.com%3A1337","udp%3A%2F%2Ftracker.coppersurfer.tk%3A6969","udp%3A%2F%2Fexodus.desync.com%3A6969"],"infoHash":"684f3902428bfa95fc4fb3231ddf41b0c4c28f8d","infoHashBuffer":{"type":"Buffer","data":[104,79,57,2,66,139,250,149,252,79,179,35,29,223,65,176,196,194,143,141]},"announce":[],"urlList":[]}}